<svg width="218" height="35" viewBox="0 0 218 35" fill="none" xmlns="http://www.w3.org/2000/svg">
<rect width="16" height="17" rx="4" fill="#39B070"/>
<rect x="18" width="16" height="17" rx="4" fill="#329761"/>
<rect y="18" width="16" height="17" rx="4" fill="#144B2E"/>
<rect x="18" y="18" width="16" height="17" rx="4" fill="#1C633D"/>
<path d="M60.688 34.128V20.496C60.688 18.544 60.4 17.136 59.824 16.272C59.28 15.408 58.336 14.976 56.992 14.976C55.808 14.976 54.8 15.328 53.968 16.032C53.168 16.704 52.592 17.552 52.24 18.576V34.128H46V10.128H50.944L51.664 13.296H51.856C52.592 12.272 53.568 11.376 54.784 10.608C56 9.84 57.568 9.456 59.488 9.456C60.672 9.456 61.728 9.616 62.656 9.936C63.584 10.256 64.368 10.784 65.008 11.52C65.648 12.256 66.128 13.264 66.448 14.544C66.768 15.792 66.928 17.344 66.928 19.2V34.128H60.688Z" fill="#C1ECB8"/>
<path d="M78.1562 10.128V23.76C78.1562 25.712 78.3803 27.12 78.8283 27.984C79.3083 28.848 80.2203 29.28 81.5643 29.28C82.7483 29.28 83.7242 28.928 84.4922 28.224C85.2922 27.52 85.8842 26.656 86.2682 25.632V10.128H92.5083V26.832C92.5083 28.144 92.5722 29.44 92.7002 30.72C92.8282 31.968 93.0202 33.104 93.2762 34.128H88.5723L87.4683 30.576H87.2762C86.5402 31.792 85.5162 32.8 84.2043 33.6C82.8923 34.4 81.3403 34.8 79.5483 34.8C78.3323 34.8 77.2443 34.64 76.2843 34.32C75.3243 34 74.5243 33.472 73.8843 32.736C73.2443 32 72.7482 31.008 72.3962 29.76C72.0762 28.512 71.9163 26.944 71.9163 25.056V10.128H78.1562Z" fill="#C1ECB8"/>
<path d="M95.4884 10.128H98.8004V5.616L105.04 3.84V10.128H110.896V15.408H105.04V24.624C105.04 26.288 105.2 27.488 105.52 28.224C105.872 28.928 106.512 29.28 107.44 29.28C108.08 29.28 108.624 29.216 109.072 29.088C109.552 28.96 110.08 28.768 110.656 28.512L111.76 33.312C110.896 33.728 109.888 34.08 108.736 34.368C107.584 34.656 106.416 34.8 105.232 34.8C103.024 34.8 101.392 34.24 100.336 33.12C99.3124 31.968 98.8004 30.096 98.8004 27.504V15.408H95.4884V10.128Z" fill="#C1ECB8"/>
<path d="M127.967 15.984C126.975 15.632 126.079 15.456 125.279 15.456C124.159 15.456 123.215 15.76 122.447 16.368C121.711 16.944 121.215 17.696 120.959 18.624V34.128H114.719V10.128H119.567L120.287 13.296H120.479C121.023 12.112 121.759 11.2 122.687 10.56C123.615 9.92 124.703 9.6 125.951 9.6C126.783 9.6 127.727 9.776 128.783 10.128L127.967 15.984Z" fill="#C1ECB8"/>
<path d="M132.075 10.128H138.315V34.128H132.075V10.128ZM131.163 3.36C131.163 2.432 131.499 1.648 132.171 1.008C132.875 0.335999 133.835 0 135.051 0C136.267 0 137.243 0.335999 137.979 1.008C138.747 1.648 139.131 2.432 139.131 3.36C139.131 4.288 138.747 5.072 137.979 5.712C137.243 6.32 136.267 6.624 135.051 6.624C133.835 6.624 132.875 6.32 132.171 5.712C131.499 5.072 131.163 4.288 131.163 3.36Z" fill="#C1ECB8"/>
<path d="M159.126 34.128V20.496C159.126 18.544 158.854 17.136 158.31 16.272C157.766 15.408 156.774 14.976 155.334 14.976C154.278 14.976 153.302 15.344 152.406 16.08C151.542 16.784 150.965 17.696 150.677 18.816V34.128H144.438V0.527999H150.677V12.816H150.869C151.637 11.792 152.582 10.976 153.701 10.368C154.822 9.76 156.246 9.456 157.974 9.456C159.19 9.456 160.261 9.616 161.189 9.936C162.117 10.256 162.885 10.784 163.493 11.52C164.134 12.256 164.597 13.264 164.885 14.544C165.205 15.792 165.366 17.344 165.366 19.2V34.128H159.126Z" fill="#C1ECB8"/>
<path d="M176.594 10.128V23.76C176.594 25.712 176.818 27.12 177.266 27.984C177.746 28.848 178.658 29.28 180.002 29.28C181.186 29.28 182.162 28.928 182.93 28.224C183.73 27.52 184.322 26.656 184.706 25.632V10.128H190.946V26.832C190.946 28.144 191.01 29.44 191.138 30.72C191.266 31.968 191.458 33.104 191.714 34.128H187.01L185.906 30.576H185.714C184.978 31.792 183.954 32.8 182.642 33.6C181.33 34.4 179.778 34.8 177.986 34.8C176.77 34.8 175.682 34.64 174.722 34.32C173.762 34 172.962 33.472 172.322 32.736C171.682 32 171.186 31.008 170.834 29.76C170.514 28.512 170.354 26.944 170.354 25.056V10.128H176.594Z" fill="#C1ECB8"/>
<path d="M196.422 0.527999H202.662V12.048H202.854C203.526 11.28 204.39 10.672 205.446 10.224C206.502 9.776 207.67 9.552 208.95 9.552C211.83 9.552 214.022 10.544 215.526 12.528C217.062 14.48 217.83 17.472 217.83 21.504C217.83 25.824 216.758 29.104 214.614 31.344C212.502 33.584 209.59 34.704 205.878 34.704C203.83 34.704 201.958 34.528 200.262 34.176C198.566 33.856 197.286 33.488 196.422 33.072V0.527999ZM207.126 14.832C205.974 14.832 205.03 15.136 204.294 15.744C203.59 16.32 203.046 17.168 202.662 18.288V28.752C203.174 29.008 203.718 29.184 204.294 29.28C204.902 29.376 205.542 29.424 206.214 29.424C207.91 29.424 209.19 28.816 210.054 27.6C210.95 26.352 211.398 24.384 211.398 21.696C211.398 17.12 209.974 14.832 207.126 14.832Z" fill="#C1ECB8"/>
</svg>
